<svg width="580" height="580" viewBox="0 0 580 580" fill="none" xmlns="http://www.w3.org/2000/svg">
<rect width="580" height="580" fill="white"/>
<path d="M403.987 125.289L288.449 173.944L252.74 138.234C240.751 126.245 222.694 122.715 207.064 129.285L95.5103 176.26C80.0521 182.77 70 197.909 70 214.691V417.204C70 440.238 88.6699 458.908 111.704 458.908H468.296C491.33 458.908 510 440.238 510 417.204V211.823C510 200.766 505.611 190.162 497.79 182.341L449.663 134.213C437.674 122.224 419.617 118.694 403.987 125.264V125.289ZM360.248 398.351L305.648 343.8C301.284 339.448 294.579 338.479 289.16 341.434L199.586 390.321C194.18 393.276 187.462 392.307 183.098 387.955L128.498 333.404C123.068 327.974 123.068 319.172 128.498 313.741L200.138 242.102C205.556 236.683 214.358 236.671 219.789 242.102L266.004 288.207C270.012 292.203 276.044 293.367 281.253 291.161L380.929 248.856C386.138 246.65 392.182 247.814 396.178 251.823L451.489 307.085C456.92 312.515 456.92 321.317 451.489 326.748L379.887 398.363C374.456 403.793 365.667 403.793 360.236 398.363L360.248 398.351Z" fill="#F25C38"/>
</svg>
