<svg width="1748" height="1181" viewBox="0 0 1748 1181" fill="none" xmlns="http://www.w3.org/2000/svg">
<g clip-path="url(#clip0_3388_65033)">
<path d="M1746.97 1230.27C1746.97 1264.15 1719.56 1291.56 1685.68 1291.56H60.3926C26.5106 1291.56 0.09791 1264.15 0.0976562 1230.27V1181H1746.97V1230.27ZM1748 1181H1746.97V455.321C1746.97 440.057 1741.29 425.395 1731.13 414.166C1728.53 411.294 1725.31 409.083 1721.93 407.198L1218.6 126.806C1201.6 111.235 1177.26 106.63 1155.66 114.744L38.6816 389.75C14.8876 398.851 0.0977982 421.658 0.0976562 447.097V1181H0V0H1748V1181Z" fill="#E55B3A"/>
<path d="M294.352 100H84.3101C81.9297 100 80 101.93 80 104.31V125.643C80 128.023 81.9297 129.953 84.3101 129.953H294.352C296.733 129.953 298.662 128.023 298.662 125.643V104.31C298.662 101.93 296.733 100 294.352 100Z" fill="white"/>
<path d="M294.352 134.023H84.3101C81.9297 134.023 80 135.953 80 138.334V159.666C80 162.047 81.9297 163.977 84.3101 163.977H294.352C296.733 163.977 298.662 162.047 298.662 159.666V138.334C298.662 135.953 296.733 134.023 294.352 134.023Z" fill="white"/>
<path d="M294.352 168.047H84.3101C81.9297 168.047 80 169.977 80 172.357V193.69C80 196.07 81.9297 198 84.3101 198H294.352C296.733 198 298.662 196.07 298.662 193.69V172.357C298.662 169.977 296.733 168.047 294.352 168.047Z" fill="white"/>
<path d="M90.1882 119.352H88.3379V110.405H90.1882V119.352ZM89.1651 119.352V117.762H91.4072C91.995 117.762 92.4739 117.654 92.8439 117.458C93.2358 117.262 93.5187 116.935 93.7147 116.5C93.9106 116.065 93.9976 115.52 93.9976 114.867C93.9976 114.214 93.9106 113.67 93.7147 113.235C93.5187 112.799 93.2358 112.495 92.8439 112.299C92.4521 112.103 91.9732 111.994 91.4072 111.994H89.0998V110.405H91.4943C92.3868 110.405 93.1704 110.579 93.8235 110.949C94.4765 111.297 94.9772 111.82 95.3255 112.495C95.6738 113.169 95.8479 113.975 95.8479 114.889C95.8479 115.803 95.6738 116.609 95.3255 117.284C94.9772 117.958 94.4765 118.481 93.8235 118.829C93.1704 119.177 92.3868 119.373 91.4725 119.373H89.1433L89.1651 119.352Z" fill="#E55B3A"/>
<path d="M96.2178 119.352L99.3089 110.405H101.703L104.794 119.352H102.792L100.528 112.407H100.463L98.1987 119.352H96.2178ZM102.879 115.825V117.284H98.0898V115.825H102.879Z" fill="#E55B3A"/>
<path d="M104.337 110.405H111.673V111.929H108.931V119.352H107.102V111.929H104.359V110.405H104.337Z" fill="#E55B3A"/>
<path d="M112.848 110.405H118.856V111.929H114.698V114.106H118.53V115.629H114.698V117.806H118.878V119.33H112.848V110.383V110.405Z" fill="#E55B3A"/>
<path d="M87.1396 144.232H88.99V151.655H92.8429V153.179H87.1396V144.232Z" fill="#E55B3A"/>
<path d="M101.354 151.176C100.984 151.873 100.505 152.395 99.8736 152.765C99.2424 153.135 98.524 153.31 97.7186 153.31C96.9131 153.31 96.1948 153.135 95.5635 152.765C94.9322 152.395 94.4316 151.873 94.0833 151.176C93.7132 150.48 93.5391 149.652 93.5391 148.716C93.5391 147.78 93.7132 146.931 94.0833 146.235C94.4533 145.538 94.9322 145.016 95.5635 144.646C96.1948 144.276 96.9131 144.102 97.7186 144.102C98.524 144.102 99.2424 144.276 99.8736 144.646C100.505 145.016 101.006 145.538 101.354 146.235C101.724 146.931 101.898 147.759 101.898 148.716C101.898 149.674 101.724 150.48 101.354 151.176ZM99.7213 147.106C99.5253 146.67 99.2641 146.322 98.9158 146.104C98.5675 145.865 98.1539 145.756 97.6968 145.756C97.2397 145.756 96.8261 145.865 96.4778 146.104C96.1295 146.322 95.8683 146.67 95.6724 147.106C95.4764 147.541 95.3894 148.085 95.3894 148.716C95.3894 149.348 95.4764 149.892 95.6724 150.327C95.8683 150.763 96.1295 151.111 96.4778 151.329C96.8261 151.546 97.2179 151.677 97.6968 151.677C98.1757 151.677 98.5675 151.568 98.9158 151.329C99.2641 151.089 99.5253 150.763 99.7213 150.327C99.9172 149.892 100.004 149.348 100.004 148.716C100.004 148.085 99.9172 147.541 99.7213 147.106Z" fill="#E55B3A"/>
<path d="M108.886 146.496C108.712 146.257 108.473 146.061 108.211 145.952C107.95 145.843 107.624 145.756 107.275 145.756C106.818 145.756 106.405 145.865 106.056 146.104C105.708 146.344 105.447 146.67 105.251 147.127C105.055 147.563 104.968 148.107 104.968 148.716C104.968 149.326 105.055 149.892 105.251 150.327C105.447 150.763 105.708 151.111 106.056 151.329C106.405 151.546 106.796 151.677 107.254 151.677C107.602 151.677 107.907 151.612 108.168 151.481C108.451 151.35 108.669 151.176 108.843 150.959C109.017 150.741 109.147 150.458 109.191 150.131H111.085C111.02 150.719 110.824 151.242 110.475 151.72C110.149 152.199 109.692 152.591 109.126 152.874C108.56 153.157 107.928 153.31 107.188 153.31C106.383 153.31 105.665 153.135 105.033 152.765C104.402 152.395 103.901 151.873 103.553 151.176C103.205 150.48 103.009 149.652 103.009 148.716C103.009 147.78 103.183 146.931 103.553 146.235C103.923 145.538 104.402 145.016 105.033 144.646C105.665 144.276 106.383 144.102 107.167 144.102C107.863 144.102 108.473 144.232 109.039 144.493C109.605 144.755 110.04 145.125 110.388 145.604C110.737 146.082 110.954 146.67 111.041 147.345H109.147C109.104 147.019 108.995 146.736 108.821 146.496H108.886Z" fill="#E55B3A"/>
<path d="M111.737 153.2L114.828 144.253H117.223L120.314 153.2H118.311L116.047 146.256H115.982L113.718 153.2H111.737ZM118.42 149.674V151.132H113.631V149.674H118.42Z" fill="#E55B3A"/>
<path d="M119.879 144.232H127.215V145.756H124.472V153.179H122.644V145.756H119.901V144.232H119.879Z" fill="#E55B3A"/>
<path d="M130.241 153.2H128.391V144.253H130.241V153.2Z" fill="#E55B3A"/>
<path d="M139.405 151.176C139.035 151.873 138.556 152.395 137.903 152.765C137.272 153.135 136.554 153.31 135.748 153.31C134.943 153.31 134.225 153.135 133.593 152.765C132.962 152.395 132.461 151.873 132.113 151.176C131.743 150.48 131.569 149.652 131.569 148.716C131.569 147.78 131.743 146.931 132.113 146.235C132.483 145.538 132.962 145.016 133.593 144.646C134.225 144.276 134.943 144.102 135.748 144.102C136.554 144.102 137.272 144.276 137.903 144.646C138.535 145.016 139.035 145.538 139.405 146.235C139.775 146.931 139.95 147.759 139.95 148.716C139.95 149.674 139.775 150.48 139.405 151.176ZM137.773 147.106C137.577 146.67 137.316 146.322 136.967 146.104C136.619 145.865 136.205 145.756 135.748 145.756C135.291 145.756 134.878 145.865 134.529 146.104C134.181 146.322 133.92 146.67 133.724 147.106C133.528 147.541 133.441 148.085 133.441 148.716C133.441 149.348 133.528 149.892 133.724 150.327C133.92 150.763 134.181 151.111 134.529 151.329C134.878 151.546 135.269 151.677 135.748 151.677C136.227 151.677 136.619 151.568 136.967 151.329C137.316 151.089 137.577 150.763 137.773 150.327C137.969 149.892 138.056 149.348 138.056 148.716C138.056 148.085 137.969 147.541 137.773 147.106Z" fill="#E55B3A"/>
<path d="M148.766 153.2H147.155L143.215 147.519H143.15V153.2H141.299V144.253H142.932L146.828 149.935H146.916V144.253H148.766V153.2Z" fill="#E55B3A"/>
<path d="M88.99 187.4H87.1396V178.453H88.99V187.4ZM87.9668 187.4V185.811H90.209C90.7967 185.811 91.2756 185.702 91.6457 185.506C92.0375 185.31 92.3205 184.984 92.5164 184.548C92.7123 184.113 92.7994 183.569 92.7994 182.916C92.7994 182.263 92.7123 181.718 92.5164 181.283C92.3205 180.848 92.0375 180.543 91.6457 180.347C91.2539 180.151 90.775 180.042 90.209 180.042H87.9015V178.453H90.296C91.1885 178.453 91.9722 178.627 92.6253 178.997C93.2783 179.346 93.779 179.868 94.1273 180.543C94.4756 181.218 94.6497 182.023 94.6497 182.937C94.6497 183.852 94.4756 184.657 94.1273 185.332C93.779 186.007 93.2783 186.529 92.6253 186.877C91.9722 187.226 91.1885 187.422 90.2743 187.422H87.9451L87.9668 187.4Z" fill="#E55B3A"/>
<path d="M96.021 178.431H102.029V179.955H97.8713V182.132H101.703V183.655H97.8713V185.832H102.051V187.356H96.021V178.409V178.431Z" fill="#E55B3A"/>
<path d="M107.21 185.265H107.297L109.474 178.43H111.542L108.451 187.377H106.056L102.965 178.43H105.033L107.21 185.265Z" fill="#E55B3A"/>
<path d="M114.416 187.4H112.565V178.453H114.416V187.4Z" fill="#E55B3A"/>
<path d="M121.577 180.716C121.403 180.477 121.185 180.281 120.902 180.172C120.619 180.041 120.314 179.976 119.966 179.976C119.509 179.976 119.095 180.085 118.747 180.324C118.399 180.564 118.137 180.89 117.942 181.348C117.746 181.783 117.659 182.327 117.659 182.937C117.659 183.546 117.746 184.112 117.942 184.548C118.137 184.983 118.399 185.309 118.747 185.549C119.095 185.767 119.487 185.897 119.944 185.897C120.293 185.897 120.597 185.832 120.859 185.701C121.141 185.571 121.359 185.396 121.533 185.179C121.707 184.939 121.838 184.678 121.903 184.352H123.797C123.732 184.939 123.536 185.462 123.188 185.941C122.861 186.42 122.404 186.811 121.838 187.094C121.272 187.377 120.641 187.53 119.901 187.53C119.095 187.53 118.377 187.356 117.746 186.986C117.114 186.615 116.614 186.093 116.265 185.396C115.917 184.7 115.721 183.873 115.721 182.937C115.721 182.001 115.895 181.152 116.265 180.455C116.635 179.758 117.114 179.236 117.746 178.866C118.377 178.496 119.095 178.322 119.879 178.322C120.576 178.322 121.185 178.452 121.751 178.714C122.317 178.975 122.752 179.345 123.101 179.824C123.449 180.303 123.667 180.89 123.754 181.565H121.86C121.816 181.239 121.707 180.956 121.533 180.716H121.577Z" fill="#E55B3A"/>
<path d="M125.104 178.431H131.112V179.955H126.954V182.132H130.785V183.655H126.954V185.832H131.112V187.356H125.082V178.409L125.104 178.431Z" fill="#E55B3A"/>
<path d="M154.012 143.84C157.016 143.84 158.823 145.277 159.432 148.172V148.716H162.132C163.568 148.716 164.287 149.435 164.287 150.871V151.133L163.743 151.96C161.5 151.59 159.607 151.416 158.061 151.416C158.431 152.221 158.605 153.397 158.605 154.942V155.486L158.322 156.031C159.541 156.031 160.368 157.837 160.76 161.451V161.995L160.499 163.345C159.041 163.345 158.322 161.799 158.322 158.73L157.517 158.186H155.623L153.729 158.447C153.381 157.859 153.185 157.315 153.185 156.836C153.185 156.118 154.36 155.661 156.711 155.486C156.341 154.398 156.167 153.048 156.167 151.416H152.096C151.139 151.416 150.507 151.046 150.203 150.327V148.716C152.641 148.542 154.447 148.433 155.623 148.433H155.906L157.256 148.172V147.628C157.256 147.323 156.254 146.779 154.273 145.995L154.012 145.473V143.84Z" fill="#010100"/>
<path d="M171.906 145.473H172.973C176.935 145.473 178.937 146.192 178.937 147.629L178.393 148.695L173.8 148.151H173.256V148.434C175.411 148.913 176.499 149.979 176.499 151.677V153.31C176.499 153.811 175.607 154.246 173.8 154.66C173.452 154.486 173.19 154.377 172.995 154.377V154.66C173.169 154.964 173.278 155.4 173.278 156.009C175.084 156.205 176.434 156.292 177.326 156.292H178.676C179.939 156.292 180.57 157.098 180.57 158.73L179.764 159.275C179.307 159.275 177.043 159.1 172.995 158.73C170.556 158.904 168.771 159.013 167.596 159.013C167.052 158.317 166.791 157.773 166.791 157.381C166.791 156.488 168.14 156.031 170.839 156.031H171.384C171.384 155.53 170.839 153.811 169.773 150.894L169.49 149C169.664 148.652 169.773 148.369 169.773 148.173L169.229 148.456H166.791C166.551 148.456 166.181 147.999 165.702 147.106L165.963 145.756C168.663 145.582 170.665 145.495 171.928 145.495L171.906 145.473ZM166.508 141.969H170.034C174.91 141.969 177.326 142.339 177.326 143.035L177.609 144.124C177.239 144.124 177.065 144.385 177.065 144.929L173.822 144.646H170.839C169.947 144.646 168.597 144.733 166.791 144.929L166.246 144.124V143.318L166.508 141.969ZM171.645 150.35V151.438C171.928 151.438 172.298 151.612 172.733 151.982H174.627V151.699C174.279 150.807 173.56 150.35 172.472 150.35H171.645ZM181.114 142.774H181.658C181.963 142.774 182.224 143.405 182.485 144.668C182.311 145.016 182.203 145.299 182.203 145.495C182.203 145.669 182.29 145.756 182.485 145.756C182.485 145.952 182.398 146.214 182.203 146.562C182.377 152.613 182.834 157.402 183.552 160.885C183.378 161.147 183.291 161.691 183.291 162.518H181.941C181.136 162.518 180.505 157.642 180.047 147.911C180.222 146.518 180.33 144.995 180.33 143.318L181.136 142.774H181.114Z" fill="#010100"/>
<path d="M199.029 143.014C199.312 143.014 199.682 143.362 200.118 144.081V151.395C200.662 155.64 200.923 158.622 200.923 160.342L200.379 160.625H199.29C198.986 160.625 198.616 159.275 198.202 156.554C196.656 156.554 192.499 156.467 185.729 156.271L184.923 154.66C185.097 154.333 185.185 153.985 185.185 153.572C187.971 153.572 192.216 153.659 197.919 153.833V146.78C197.919 144.255 198.289 142.992 199.007 142.992L199.029 143.014ZM188.994 144.364C189.19 144.364 189.451 144.451 189.799 144.625L191.432 144.364H191.693C194.588 145.278 196.025 146.823 196.025 148.978C195.633 150.611 195.176 151.417 194.676 151.417H191.976C188.689 151.417 186.708 150.241 186.012 147.89H185.729C185.903 147.542 186.012 147.259 186.012 147.063V146.257C187.253 144.995 188.254 144.364 188.994 144.364ZM188.167 147.346V147.607C188.167 148.369 190.061 148.826 193.87 148.957C193.87 148.783 193.957 148.695 194.131 148.695C193.5 147.433 192.499 146.802 191.149 146.802C189.255 147.172 188.276 147.346 188.167 147.346Z" fill="#010100"/>
<path d="M209.347 144.101C209.717 144.188 210.087 144.624 210.436 145.451C210.436 145.778 209.63 146.953 207.998 148.977C210.262 152.417 211.807 154.115 212.613 154.115V155.726H211.263C208.716 153.636 207.366 152.003 207.192 150.85H206.909L203.927 154.637H203.1C202.556 154.528 202.294 153.81 202.294 152.46L208.52 144.058H209.326L209.347 144.101ZM215.312 142.208C216.074 142.208 216.618 145.016 216.923 150.61L217.467 150.349H221.538C221.973 150.719 222.343 150.893 222.626 150.893V152.243C222.626 152.787 221.625 153.048 219.644 153.048H217.489C217.119 153.113 216.944 153.288 216.944 153.592V157.663C216.944 158.599 216.683 159.143 216.139 159.296H215.595C214.985 159.296 214.615 157.489 214.506 153.875L214.789 153.331C214.594 152.983 214.506 152.7 214.506 152.504H214.789L214.506 151.96V151.154C214.506 150.98 214.594 150.893 214.789 150.893L214.506 150.349V147.911C214.506 146.735 214.419 144.929 214.245 142.491C214.332 142.491 214.702 142.403 215.334 142.229L215.312 142.208Z" fill="#010100"/>
<path d="M234.294 143.036H235.361C235.731 145.408 235.905 147.041 235.905 147.912C235.992 147.912 236.362 147.825 236.993 147.651C238.626 147.651 239.432 148.369 239.432 149.806C237.451 150.35 236.449 150.698 236.449 150.894C236.449 151.656 236.623 152.548 236.993 153.593C236.993 154.312 236.536 154.682 235.644 154.682V154.943C236.602 154.943 237.233 155.944 237.538 157.925C237.538 158.948 236.819 159.928 235.361 160.907C232.379 160.907 230.398 160.015 229.396 158.208L229.135 157.12H229.396C229.222 156.771 229.135 156.51 229.135 156.314C229.135 154.943 230.028 154.116 231.834 153.876C232.749 153.876 233.837 154.05 235.078 154.42C234.534 153.354 234.272 152.004 234.272 150.35C233.532 150.829 232.27 151.373 230.485 151.982C226.871 151.678 225.064 150.415 225.064 148.195C224.346 148.195 223.976 147.302 223.976 145.495V143.602L225.587 143.319C227.154 143.493 228.526 143.602 229.658 143.602H229.919C230.637 143.885 231.007 144.516 231.007 145.495C230.811 146.04 230.289 146.301 229.375 146.301H226.131V146.562C226.545 147.433 227.263 148.26 228.308 149H233.989L233.445 146.845C233.576 144.32 233.859 143.057 234.272 143.057L234.294 143.036ZM231.051 156.031V156.576C231.051 157.141 231.943 157.686 233.75 158.186C234.49 157.816 235.034 157.642 235.361 157.642V157.098C233.728 156.38 232.64 156.031 232.117 156.031C231.769 156.205 231.508 156.293 231.312 156.293C231.312 156.118 231.225 156.031 231.051 156.031Z" fill="#010100"/>
<path d="M153.751 176.776H154.556C154.774 176.776 155.753 178.039 157.538 180.564L158.366 181.108H158.91C160.608 181.108 162.502 179.672 164.591 176.776C165.31 177.059 165.68 177.691 165.68 178.67V182.197C165.68 182.61 165.767 182.959 165.941 183.285C165.941 183.459 165.854 183.546 165.68 183.546C166.05 187.399 166.224 190.207 166.224 191.927L165.418 192.471H164.874C164.156 192.471 163.786 188.858 163.786 181.652C162.175 182.915 160.717 183.546 159.454 183.546H158.649C157.756 183.546 156.668 182.828 155.405 181.391V181.674C155.579 186.572 155.688 189.554 155.688 190.599C155.427 191.318 155.144 191.688 154.883 191.688C153.794 191.688 153.25 190.969 153.25 189.533C153.25 188.705 153.337 188.183 153.533 187.9C153.359 186.507 153.163 183.176 152.989 177.887C153.25 177.168 153.533 176.82 153.794 176.82L153.751 176.776Z" fill="#010100"/>
<path d="M172.449 180.542C173.167 181.087 173.799 182.262 174.343 184.069L178.675 189.489L178.936 190.033V190.861C178.936 191.209 178.762 191.405 178.392 191.405H178.131C177.173 191.405 176.258 190.512 175.431 188.706L174.082 187.356C173.712 189.511 172.732 190.599 171.099 190.599H169.75C168.313 189.859 167.595 188.423 167.595 186.268V185.723C168.161 182.306 169.793 180.586 172.471 180.586L172.449 180.542ZM169.728 185.963V187.857C169.924 187.857 170.185 187.944 170.533 188.14C170.991 188.14 171.731 187.312 172.689 185.702C172.471 185.419 172.297 184.504 172.144 183.002H171.883C170.446 183.96 169.728 184.94 169.728 185.985V185.963Z" fill="#010100"/>
<path d="M184.9 180.542H186.25C187.099 180.934 187.73 181.587 188.144 182.436V183.242H187.6C186.337 183.242 185.706 183.068 185.706 182.698C184.683 182.806 183.529 183.525 182.179 184.853L182.44 185.397L182.179 185.941C182.179 187.421 183.442 188.51 185.967 189.184H186.772C186.947 189.184 187.665 189.01 188.927 188.64H189.21C189.493 188.64 189.842 189.01 190.277 189.729C190.277 190.687 189.102 191.514 186.751 192.167C182.419 191.1 180.264 189.119 180.264 186.224V184.33C180.264 182.306 181.787 181.043 184.857 180.542H184.9Z" fill="#010100"/>
<path d="M192.52 175.405H192.803C193.043 175.405 193.413 175.862 193.87 176.754V183.502C194.958 182.784 196.025 182.414 197.113 182.414H197.658C199.638 183.938 200.64 185.549 200.64 187.29C200.64 189.968 199.094 191.491 196.047 191.883C193.522 191.339 192.259 190.338 192.259 188.901L191.715 181.064L191.976 180.52C191.802 179.541 191.715 178.735 191.715 178.082C191.715 176.275 191.976 175.383 192.52 175.383V175.405ZM194.414 187.312V188.378C194.458 188.749 194.654 188.923 194.958 188.923H196.569C197.418 188.923 198.136 188.378 198.724 187.312V186.485C198.724 186.31 198.267 185.766 197.375 184.874C195.394 185.113 194.392 185.94 194.392 187.312H194.414Z" fill="#010100"/>
<path d="M206.887 181.087C211.741 182.349 214.179 184.505 214.179 187.574C213.722 190.991 212.285 192.711 209.869 192.711H209.325C206.125 192.711 204.057 191.993 203.099 190.556C202.381 188.967 202.032 187.987 202.032 187.574V187.313C202.032 183.721 203.556 181.653 206.625 181.087H206.908H206.887ZM205.798 184.069C205.189 184.722 204.579 185.615 203.904 186.768C204.383 189.119 206.103 190.295 209.042 190.295C211.023 189.816 212.024 188.815 212.024 187.313C211.327 185.136 209.259 184.069 205.798 184.069Z" fill="#010100"/>
<path d="M220.427 181.087C225.281 182.349 227.719 184.505 227.719 187.574C227.262 190.991 225.826 192.711 223.409 192.711H222.865C219.665 192.711 217.597 191.993 216.639 190.556C215.921 188.967 215.573 187.987 215.573 187.574V187.313C215.573 183.721 217.097 181.653 220.166 181.087H220.449H220.427ZM219.36 184.069C218.751 184.722 218.141 185.615 217.467 186.768C217.945 189.119 219.665 190.295 222.604 190.295C224.585 189.816 225.586 188.815 225.586 187.313C224.89 185.136 222.822 184.069 219.36 184.069Z" fill="#010100"/>
<path d="M229.656 176.776H230.2C231.006 176.776 231.441 178.67 231.55 182.458C235.577 180.477 237.754 179.476 238.037 179.476L238.842 180.825C238.842 181.653 237.319 182.719 234.249 184.069V184.613C237.841 186.637 239.648 188.422 239.648 190.012V190.295C239.648 190.839 239.278 191.1 238.581 191.1C237.885 190.904 237.253 190.36 236.687 189.467C235.599 188.575 233.988 187.486 231.833 186.224L232.094 187.574V190.817C232.094 191.078 231.833 191.361 231.289 191.622C230.2 191.252 229.678 190.904 229.678 190.534C229.308 182.741 229.134 178.235 229.134 177.016L229.678 176.733L229.656 176.776Z" fill="#010100"/>
<path d="M254.69 176.232H255.757C256.54 176.232 258.978 181.74 263.071 192.733V193.016C262.875 193.364 262.788 193.625 262.788 193.821H261.721C261.155 193.821 260.154 191.557 258.739 187.051L257.389 187.334H257.106C256.932 187.334 256.845 187.247 256.845 187.051L256.301 187.334H253.602L253.057 187.051C252.339 188.575 251.621 190.665 250.902 193.277H249.009C249.009 192.972 248.834 192.428 248.464 191.666L254.69 176.254V176.232ZM253.885 184.874H254.146C255.67 184.7 256.845 184.613 257.672 184.613C256.584 182.11 256.061 180.76 256.061 180.543C255.844 180.543 255.125 181.979 253.906 184.874H253.885Z" fill="#010100"/>
<path d="M265.27 177.581C265.988 177.886 266.358 178.517 266.358 179.475C266.358 179.845 266.184 180.019 265.814 180.019H265.009C264.639 180.019 264.465 179.845 264.465 179.475V178.386C264.465 178.125 264.726 177.864 265.27 177.581ZM265.27 183.263C266.533 183.263 267.164 186.68 267.164 193.537C266.99 193.885 266.881 194.147 266.881 194.343H266.337C265.248 194.343 264.704 193.537 264.704 191.905C264.53 190.011 264.443 187.943 264.443 185.679V184.068C264.443 183.807 264.704 183.546 265.248 183.263H265.27Z" fill="#010100"/>
<path d="M268.817 181.37H269.906C270.036 181.37 270.494 182.001 271.255 183.264C271.255 182.959 271.8 182.698 272.866 182.458C276.828 182.632 278.809 183.373 278.809 184.613V184.875C278.678 184.875 278.395 185.136 278.004 185.68C277.394 185.68 275.87 185.593 273.41 185.419C271.974 186.246 271.255 187.247 271.255 188.401V189.468C271.255 190.121 271.342 190.926 271.517 191.906C271.451 192.385 270.994 192.755 270.167 192.972C269.362 192.972 268.904 190.904 268.817 186.768H269.1C268.73 185.724 268.556 184.548 268.556 183.242L268.817 181.348V181.37Z" fill="#010100"/>
<path d="M126.214 112.365H127.281C129.262 113.388 130.263 115.282 130.263 118.046C130.002 120.158 129.001 122.052 127.281 123.728V124.011C127.891 124.011 129.414 123.924 131.874 123.728C132.636 123.728 133.637 124.098 134.856 124.816V126.166C134.486 126.166 134.312 126.34 134.312 126.71L131.069 126.449H121.6L121.338 125.099C121.338 124.272 122.775 123.292 125.67 122.117C127.303 120.441 128.108 118.634 128.108 116.697C127.847 115.434 127.499 114.803 127.02 114.803H125.931C125.714 114.803 125.083 115.521 124.038 116.958C123.776 116.958 123.515 116.675 123.232 116.131V113.976C123.798 112.887 124.8 112.365 126.214 112.365Z" fill="#010100"/>
<path d="M141.387 113.17C143.825 113.17 146.35 114.802 148.963 118.046L149.224 119.395V119.94C148.549 123.531 146.742 125.338 143.825 125.338H143.281C138.949 125.077 136.794 123.836 136.794 121.551C136.424 120.854 136.25 119.853 136.25 118.568V116.674C137.556 114.323 139.254 113.148 141.387 113.148V113.17ZM138.144 119.395C138.144 121.659 139.776 122.922 143.02 123.183C145.262 123.183 146.612 121.746 147.069 118.851C146.655 117.785 145.741 116.979 144.37 116.413C143.107 115.869 142.215 115.608 141.67 115.608C139.493 116.043 138.427 116.674 138.427 117.502C138.253 118.22 138.166 118.851 138.166 119.395H138.144Z" fill="#010100"/>
<path d="M155.494 112.365H156.56C158.541 113.388 159.543 115.282 159.543 118.046C159.281 120.158 158.28 122.052 156.56 123.728V124.011C157.17 124.011 158.694 123.924 161.154 123.728C161.915 123.728 162.917 124.098 164.136 124.816V126.166C163.766 126.166 163.592 126.34 163.592 126.71L160.348 126.449H150.879L150.618 125.099C150.618 124.272 152.054 123.292 154.95 122.117C156.582 120.441 157.388 118.634 157.388 116.697C157.126 115.434 156.778 114.803 156.299 114.803H155.211C154.993 114.803 154.362 115.521 153.317 116.958C153.056 116.958 152.795 116.675 152.512 116.131V113.976C153.077 112.887 154.079 112.365 155.494 112.365Z" fill="#010100"/>
<path d="M170.404 109.926H171.21C171.471 109.926 171.732 110.187 172.015 110.732V111.276C169.12 113.605 167.683 115.956 167.683 118.307C168.336 117.937 169.055 117.763 169.838 117.763H170.099C173.06 117.763 175.128 118.851 176.325 121.006C176.325 124.62 174.801 126.427 171.732 126.427H170.644C167.988 126.427 166.29 124.163 165.506 119.657V118.046C165.506 114.476 167.139 111.777 170.382 109.926H170.404ZM167.944 121.006C167.944 122.813 169.033 123.706 171.188 123.706H171.449C173.256 123.466 174.148 122.661 174.148 121.268V120.985C171.95 120.44 170.687 120.179 170.361 120.179L167.923 120.985L167.944 121.006Z" fill="#010100"/>
<path d="M178.524 124.533C179.351 124.881 179.808 125.251 179.873 125.621V126.688L178.524 126.971H178.262C178.262 126.666 178.088 126.209 177.718 125.621C177.979 124.903 178.262 124.533 178.524 124.533Z" fill="#010100"/>
<path d="M193.849 113.17C196.287 113.17 198.812 114.802 201.425 118.046L201.686 119.395V119.94C201.011 123.531 199.204 125.338 196.287 125.338H195.743C191.411 125.077 189.256 123.836 189.256 121.551C188.886 120.854 188.712 119.853 188.712 118.568V116.674C190.018 114.323 191.716 113.148 193.849 113.148V113.17ZM190.606 119.395C190.606 121.659 192.238 122.922 195.482 123.183C197.724 123.183 199.074 121.746 199.531 118.851C199.117 117.785 198.225 116.979 196.831 116.413C195.569 115.869 194.676 115.608 194.132 115.608C191.955 116.043 190.889 116.674 190.889 117.502C190.715 118.22 190.628 118.851 190.628 119.395H190.606Z" fill="#010100"/>
<path d="M203.339 109.926H204.427V110.47L208.215 110.209C211.284 111.298 212.808 113.366 212.808 116.435C211.785 123.836 210.892 127.537 210.109 127.537H209.848C209.499 127.537 209.129 126.993 208.759 125.904C210.022 119.722 210.653 116.196 210.653 115.347C210.109 113.736 209.303 112.909 208.215 112.909H205.516C205.167 112.909 204.971 113.17 204.971 113.714C205.32 116.762 205.516 118.568 205.516 119.134L204.971 119.395H204.166C203.448 119.395 203.078 116.609 203.078 111.015L203.339 109.948V109.926Z" fill="#010100"/>
<path d="M215.008 124.533C215.835 124.881 216.292 125.251 216.358 125.621V126.688L215.008 126.971H214.747C214.747 126.666 214.573 126.209 214.203 125.621C214.464 124.903 214.747 124.533 215.008 124.533Z" fill="#010100"/>
<path d="M225.456 111.276H225.739C226.827 111.276 227.35 111.994 227.35 113.431V114.781C227.35 116.5 227.437 118.568 227.611 121.006L227.35 122.095C227.72 124.119 227.894 125.491 227.894 126.165C227.306 126.514 226.762 126.71 226.283 126.71C225.674 126.71 225.304 124.903 225.195 121.311V118.068C225.195 116.544 225.282 114.28 225.456 111.319V111.276Z" fill="#010100"/>
<path d="M232.792 109.121H233.859C236.079 109.121 237.777 110.84 238.996 114.258V115.325C238.996 116.152 238.452 116.957 237.363 117.763C238.8 119.874 239.518 121.768 239.518 123.444C238.691 125.795 237.341 126.971 235.469 126.971H234.381C232.161 126.971 230.55 125.708 229.505 123.183C229.331 122.856 229.244 122.508 229.244 122.116V120.505C229.788 118.329 230.506 117.262 231.399 117.262C230.441 116.086 229.918 114.911 229.788 113.735V112.669C229.788 111.472 230.789 110.296 232.77 109.142L232.792 109.121ZM231.181 121.006C231.181 123.031 232.182 124.184 234.163 124.533H234.969C236.58 124.25 237.407 123.531 237.407 122.377C237.407 121.05 236.601 119.961 234.969 119.134H232.531C232.095 119.243 231.638 119.874 231.181 121.028V121.006ZM231.703 112.908V113.452C231.703 114.715 232.422 115.52 233.859 115.891C236.035 115.651 237.102 115.303 237.102 114.824V113.735C236.275 112.299 235.012 111.58 233.314 111.58C232.574 111.842 232.03 112.277 231.682 112.93L231.703 112.908Z" fill="#010100"/>
<path d="M253.232 108.576H255.126V109.643C252.056 112.059 250.511 114.671 250.511 117.479C250.337 117.741 250.25 118.285 250.25 119.112C250.25 120.962 251.969 123.313 255.387 126.143L255.648 127.493C255.3 127.667 255.039 127.754 254.843 127.754C254.081 127.754 252.731 126.862 250.772 125.055C249.161 123.531 248.334 121.92 248.334 120.179V117.741C248.334 113.017 249.967 109.948 253.21 108.533L253.232 108.576Z" fill="#010100"/>
<path d="M261.374 114.519H264.356C265.249 114.846 265.706 115.651 265.706 116.957L265.423 117.502L264.073 117.219H261.374V117.502C264.269 119.482 265.706 121.289 265.706 122.9V125.055C265.118 126.318 264.117 126.949 262.724 126.949C259.959 126.949 258.065 125.512 257.042 122.617V121.267C257.107 120.897 257.281 120.723 257.586 120.723H258.392C259.262 123.074 260.351 124.25 261.635 124.25C262.898 124.076 263.529 123.793 263.529 123.444V123.161C263.529 122.116 262.179 120.854 259.458 119.374L258.914 117.48V116.653C258.914 115.216 259.719 114.498 261.352 114.498L261.374 114.519Z" fill="#010100"/>
<path d="M271.953 113.713C272.671 114.258 273.303 115.433 273.847 117.24L278.179 122.66L278.44 123.204V124.032C278.44 124.38 278.266 124.576 277.896 124.576H277.634C276.677 124.576 275.762 123.683 274.935 121.876L273.586 120.527C273.216 122.682 272.236 123.77 270.603 123.77H269.254C267.817 123.03 267.099 121.593 267.099 119.438V118.894C267.665 115.477 269.297 113.757 271.975 113.757L271.953 113.713ZM269.254 119.134V121.028C269.45 121.028 269.711 121.115 270.059 121.311C270.516 121.311 271.256 120.483 272.214 118.872C271.996 118.589 271.822 117.675 271.67 116.173H271.409C269.972 117.131 269.254 118.111 269.254 119.155V119.134Z" fill="#010100"/>
<path d="M285.514 109.926H286.059C286.298 109.926 286.755 110.383 287.408 111.276C287.408 111.711 287.321 113.061 287.147 115.347L287.408 116.696H293.634C293.873 116.696 294.243 117.153 294.701 118.046V119.134L294.156 119.94L291.457 119.657H287.931C288.758 120.919 289.759 121.551 290.913 121.551L292.524 121.289H293.612C294.33 121.572 294.679 122.204 294.679 123.183V123.727C294.679 124.097 294.505 124.272 294.135 124.272H291.435C288.235 124.272 286.342 122.726 285.754 119.657V119.395C283.076 119.57 281.27 119.657 280.355 119.657L279.811 118.851C279.985 117.872 280.072 117.132 280.072 116.696H284.665L285.21 116.435L284.948 115.891V115.085C284.948 113.104 285.122 111.385 285.493 109.948L285.514 109.926Z" fill="#010100"/>
<path d="M297.443 108.032C301.405 109.883 303.386 113.322 303.386 118.307C303.386 121.616 301.862 124.859 298.793 128.037C298.379 128.037 298.031 128.124 297.705 128.32C296.616 127.95 296.094 127.232 296.094 126.165C299.511 124.206 301.231 121.42 301.231 117.784V115.891C301.231 114.258 299.707 112.103 296.638 109.404V108.598C296.638 108.228 296.899 108.054 297.443 108.054V108.032Z" fill="#010100"/>
</g>
<rect x="0.5" y="0.5" width="1747" height="1180" stroke="#FF0000"/>
<defs>
<clipPath id="clip0_3388_65033">
<rect width="1748" height="1181" fill="white"/>
</clipPath>
</defs>
</svg>
