<svg width="1748" height="1181" viewBox="0 0 1748 1181" fill="none" xmlns="http://www.w3.org/2000/svg">
<g clip-path="url(#clip0_3388_65033)">
<path d="M0 1181H1748V452.134C1748.06 453.281 1748.1 454.433 1748.1 455.589V1230.69C1748.1 1264.58 1720.65 1292 1686.73 1292H59.4658C25.5425 1292 -0.902344 1264.58 -0.902344 1230.69V447.363C-0.902344 443.705 -0.594836 440.102 0 436.586V1181ZM1748 452.134C1747.21 438.119 1741.63 424.803 1732.23 414.421C1729.63 411.551 1726.41 409.343 1723.02 407.46L1219.08 127.006C1202.06 111.432 1177.69 106.827 1156.06 114.942L37.7285 390.004C17.3302 397.798 3.54291 415.644 0 436.586V0H1748V452.134Z" fill="#E55B3A"/>
<path d="M293.352 101H83.3101C80.9297 101 79 102.93 79 105.31V126.643C79 129.023 80.9297 130.953 83.3101 130.953H293.352C295.733 130.953 297.662 129.023 297.662 126.643V105.31C297.662 102.93 295.733 101 293.352 101Z" fill="white"/>
<path d="M293.352 135.023H83.3101C80.9297 135.023 79 136.953 79 139.334V160.666C79 163.047 80.9297 164.977 83.3101 164.977H293.352C295.733 164.977 297.662 163.047 297.662 160.666V139.334C297.662 136.953 295.733 135.023 293.352 135.023Z" fill="white"/>
<path d="M293.352 169.047H83.3101C80.9297 169.047 79 170.977 79 173.357V194.69C79 197.07 80.9297 199 83.3101 199H293.352C295.733 199 297.662 197.07 297.662 194.69V173.357C297.662 170.977 295.733 169.047 293.352 169.047Z" fill="white"/>
<path d="M89.1882 120.352H87.3379V111.405H89.1882V120.352ZM88.1651 120.352V118.762H90.4072C90.995 118.762 91.4739 118.654 91.8439 118.458C92.2358 118.262 92.5187 117.935 92.7147 117.5C92.9106 117.065 92.9976 116.52 92.9976 115.867C92.9976 115.214 92.9106 114.67 92.7147 114.235C92.5187 113.799 92.2358 113.495 91.8439 113.299C91.4521 113.103 90.9732 112.994 90.4072 112.994H88.0998V111.405H90.4943C91.3868 111.405 92.1704 111.579 92.8235 111.949C93.4765 112.297 93.9772 112.82 94.3255 113.495C94.6738 114.169 94.8479 114.975 94.8479 115.889C94.8479 116.803 94.6738 117.609 94.3255 118.284C93.9772 118.958 93.4765 119.481 92.8235 119.829C92.1704 120.177 91.3868 120.373 90.4725 120.373H88.1433L88.1651 120.352Z" fill="#E55B3A"/>
<path d="M95.2178 120.352L98.3089 111.405H100.703L103.794 120.352H101.792L99.5279 113.407H99.4626L97.1987 120.352H95.2178ZM101.879 116.825V118.284H97.0898V116.825H101.879Z" fill="#E55B3A"/>
<path d="M103.337 111.405H110.673V112.929H107.931V120.352H106.102V112.929H103.359V111.405H103.337Z" fill="#E55B3A"/>
<path d="M111.848 111.405H117.856V112.929H113.698V115.106H117.53V116.629H113.698V118.806H117.878V120.33H111.848V111.383V111.405Z" fill="#E55B3A"/>
<path d="M86.1396 145.232H87.99V152.655H91.8429V154.179H86.1396V145.232Z" fill="#E55B3A"/>
<path d="M100.354 152.176C99.9838 152.873 99.5049 153.395 98.8736 153.765C98.2424 154.135 97.524 154.31 96.7186 154.31C95.9131 154.31 95.1948 154.135 94.5635 153.765C93.9322 153.395 93.4316 152.873 93.0833 152.176C92.7132 151.48 92.5391 150.652 92.5391 149.716C92.5391 148.78 92.7132 147.931 93.0833 147.235C93.4533 146.538 93.9322 146.016 94.5635 145.646C95.1948 145.276 95.9131 145.102 96.7186 145.102C97.524 145.102 98.2424 145.276 98.8736 145.646C99.5049 146.016 100.006 146.538 100.354 147.235C100.724 147.931 100.898 148.759 100.898 149.716C100.898 150.674 100.724 151.48 100.354 152.176ZM98.7213 148.106C98.5253 147.67 98.2641 147.322 97.9158 147.104C97.5675 146.865 97.1539 146.756 96.6968 146.756C96.2397 146.756 95.8261 146.865 95.4778 147.104C95.1295 147.322 94.8683 147.67 94.6724 148.106C94.4764 148.541 94.3894 149.085 94.3894 149.716C94.3894 150.348 94.4764 150.892 94.6724 151.327C94.8683 151.763 95.1295 152.111 95.4778 152.329C95.8261 152.546 96.2179 152.677 96.6968 152.677C97.1757 152.677 97.5675 152.568 97.9158 152.329C98.2641 152.089 98.5253 151.763 98.7213 151.327C98.9172 150.892 99.0042 150.348 99.0042 149.716C99.0042 149.085 98.9172 148.541 98.7213 148.106Z" fill="#E55B3A"/>
<path d="M107.886 147.496C107.712 147.257 107.473 147.061 107.211 146.952C106.95 146.843 106.624 146.756 106.275 146.756C105.818 146.756 105.405 146.865 105.056 147.104C104.708 147.344 104.447 147.67 104.251 148.127C104.055 148.563 103.968 149.107 103.968 149.716C103.968 150.326 104.055 150.892 104.251 151.327C104.447 151.763 104.708 152.111 105.056 152.329C105.405 152.546 105.796 152.677 106.254 152.677C106.602 152.677 106.907 152.612 107.168 152.481C107.451 152.35 107.669 152.176 107.843 151.959C108.017 151.741 108.147 151.458 108.191 151.131H110.085C110.02 151.719 109.824 152.242 109.475 152.72C109.149 153.199 108.692 153.591 108.126 153.874C107.56 154.157 106.928 154.31 106.188 154.31C105.383 154.31 104.665 154.135 104.033 153.765C103.402 153.395 102.901 152.873 102.553 152.176C102.205 151.48 102.009 150.652 102.009 149.716C102.009 148.78 102.183 147.931 102.553 147.235C102.923 146.538 103.402 146.016 104.033 145.646C104.665 145.276 105.383 145.102 106.167 145.102C106.863 145.102 107.473 145.232 108.039 145.493C108.605 145.755 109.04 146.125 109.388 146.604C109.737 147.082 109.954 147.67 110.041 148.345H108.147C108.104 148.019 107.995 147.736 107.821 147.496H107.886Z" fill="#E55B3A"/>
<path d="M110.737 154.2L113.828 145.253H116.223L119.314 154.2H117.311L115.047 147.256H114.982L112.718 154.2H110.737ZM117.42 150.674V152.132H112.631V150.674H117.42Z" fill="#E55B3A"/>
<path d="M118.879 145.232H126.215V146.756H123.472V154.179H121.644V146.756H118.901V145.232H118.879Z" fill="#E55B3A"/>
<path d="M129.241 154.2H127.391V145.253H129.241V154.2Z" fill="#E55B3A"/>
<path d="M138.405 152.176C138.035 152.873 137.556 153.395 136.903 153.765C136.272 154.135 135.554 154.31 134.748 154.31C133.943 154.31 133.225 154.135 132.593 153.765C131.962 153.395 131.461 152.873 131.113 152.176C130.743 151.48 130.569 150.652 130.569 149.716C130.569 148.78 130.743 147.931 131.113 147.235C131.483 146.538 131.962 146.016 132.593 145.646C133.225 145.276 133.943 145.102 134.748 145.102C135.554 145.102 136.272 145.276 136.903 145.646C137.535 146.016 138.035 146.538 138.405 147.235C138.775 147.931 138.95 148.759 138.95 149.716C138.95 150.674 138.775 151.48 138.405 152.176ZM136.773 148.106C136.577 147.67 136.316 147.322 135.967 147.104C135.619 146.865 135.205 146.756 134.748 146.756C134.291 146.756 133.878 146.865 133.529 147.104C133.181 147.322 132.92 147.67 132.724 148.106C132.528 148.541 132.441 149.085 132.441 149.716C132.441 150.348 132.528 150.892 132.724 151.327C132.92 151.763 133.181 152.111 133.529 152.329C133.878 152.546 134.269 152.677 134.748 152.677C135.227 152.677 135.619 152.568 135.967 152.329C136.316 152.089 136.577 151.763 136.773 151.327C136.969 150.892 137.056 150.348 137.056 149.716C137.056 149.085 136.969 148.541 136.773 148.106Z" fill="#E55B3A"/>
<path d="M147.766 154.2H146.155L142.215 148.519H142.15V154.2H140.299V145.253H141.932L145.828 150.935H145.916V145.253H147.766V154.2Z" fill="#E55B3A"/>
<path d="M87.99 188.4H86.1396V179.453H87.99V188.4ZM86.9668 188.4V186.811H89.209C89.7967 186.811 90.2756 186.702 90.6457 186.506C91.0375 186.31 91.3205 185.984 91.5164 185.548C91.7123 185.113 91.7994 184.569 91.7994 183.916C91.7994 183.263 91.7123 182.718 91.5164 182.283C91.3205 181.848 91.0375 181.543 90.6457 181.347C90.2539 181.151 89.775 181.042 89.209 181.042H86.9015V179.453H89.296C90.1885 179.453 90.9722 179.627 91.6253 179.997C92.2783 180.346 92.779 180.868 93.1273 181.543C93.4756 182.218 93.6497 183.023 93.6497 183.937C93.6497 184.852 93.4756 185.657 93.1273 186.332C92.779 187.007 92.2783 187.529 91.6253 187.877C90.9722 188.226 90.1885 188.422 89.2743 188.422H86.9451L86.9668 188.4Z" fill="#E55B3A"/>
<path d="M95.021 179.431H101.029V180.955H96.8713V183.132H100.703V184.655H96.8713V186.832H101.051V188.356H95.021V179.409V179.431Z" fill="#E55B3A"/>
<path d="M106.21 186.265H106.297L108.474 179.43H110.542L107.451 188.377H105.056L101.965 179.43H104.033L106.21 186.265Z" fill="#E55B3A"/>
<path d="M113.416 188.4H111.565V179.453H113.416V188.4Z" fill="#E55B3A"/>
<path d="M120.577 181.716C120.403 181.477 120.185 181.281 119.902 181.172C119.619 181.041 119.314 180.976 118.966 180.976C118.509 180.976 118.095 181.085 117.747 181.324C117.399 181.564 117.137 181.89 116.942 182.348C116.746 182.783 116.659 183.327 116.659 183.937C116.659 184.546 116.746 185.112 116.942 185.548C117.137 185.983 117.399 186.309 117.747 186.549C118.095 186.767 118.487 186.897 118.944 186.897C119.293 186.897 119.597 186.832 119.859 186.701C120.141 186.571 120.359 186.396 120.533 186.179C120.707 185.939 120.838 185.678 120.903 185.352H122.797C122.732 185.939 122.536 186.462 122.188 186.941C121.861 187.42 121.404 187.811 120.838 188.094C120.272 188.377 119.641 188.53 118.901 188.53C118.095 188.53 117.377 188.356 116.746 187.986C116.114 187.615 115.614 187.093 115.265 186.396C114.917 185.7 114.721 184.873 114.721 183.937C114.721 183.001 114.895 182.152 115.265 181.455C115.635 180.758 116.114 180.236 116.746 179.866C117.377 179.496 118.095 179.322 118.879 179.322C119.576 179.322 120.185 179.452 120.751 179.714C121.317 179.975 121.752 180.345 122.101 180.824C122.449 181.303 122.667 181.89 122.754 182.565H120.86C120.816 182.239 120.707 181.956 120.533 181.716H120.577Z" fill="#E55B3A"/>
<path d="M124.104 179.431H130.112V180.955H125.954V183.132H129.785V184.655H125.954V186.832H130.112V188.356H124.082V179.409L124.104 179.431Z" fill="#E55B3A"/>
<path d="M153.012 144.84C156.016 144.84 157.823 146.277 158.432 149.172V149.716H161.132C162.568 149.716 163.287 150.435 163.287 151.871V152.133L162.743 152.96C160.5 152.59 158.607 152.416 157.061 152.416C157.431 153.221 157.605 154.397 157.605 155.942V156.486L157.322 157.031C158.541 157.031 159.368 158.837 159.76 162.451V162.995L159.499 164.345C158.041 164.345 157.322 162.799 157.322 159.73L156.517 159.186H154.623L152.729 159.447C152.381 158.859 152.185 158.315 152.185 157.836C152.185 157.118 153.36 156.661 155.711 156.486C155.341 155.398 155.167 154.048 155.167 152.416H151.096C150.139 152.416 149.507 152.046 149.203 151.327V149.716C151.641 149.542 153.447 149.433 154.623 149.433H154.906L156.256 149.172V148.628C156.256 148.323 155.254 147.779 153.273 146.995L153.012 146.473V144.84Z" fill="#010100"/>
<path d="M170.906 146.473H171.973C175.935 146.473 177.937 147.192 177.937 148.629L177.393 149.695L172.8 149.151H172.256V149.434C174.411 149.913 175.499 150.979 175.499 152.677V154.31C175.499 154.811 174.607 155.246 172.8 155.66C172.452 155.486 172.19 155.377 171.995 155.377V155.66C172.169 155.964 172.278 156.4 172.278 157.009C174.084 157.205 175.434 157.292 176.326 157.292H177.676C178.939 157.292 179.57 158.098 179.57 159.73L178.764 160.275C178.307 160.275 176.043 160.1 171.995 159.73C169.556 159.904 167.771 160.013 166.596 160.013C166.052 159.317 165.791 158.773 165.791 158.381C165.791 157.488 167.14 157.031 169.839 157.031H170.384C170.384 156.53 169.839 154.811 168.773 151.894L168.49 150C168.664 149.652 168.773 149.369 168.773 149.173L168.229 149.456H165.791C165.551 149.456 165.181 148.999 164.702 148.106L164.963 146.756C167.663 146.582 169.665 146.495 170.928 146.495L170.906 146.473ZM165.508 142.969H169.034C173.91 142.969 176.326 143.339 176.326 144.035L176.609 145.124C176.239 145.124 176.065 145.385 176.065 145.929L172.822 145.646H169.839C168.947 145.646 167.597 145.733 165.791 145.929L165.246 145.124V144.318L165.508 142.969ZM170.645 151.35V152.438C170.928 152.438 171.298 152.612 171.733 152.982H173.627V152.699C173.279 151.807 172.56 151.35 171.472 151.35H170.645ZM180.114 143.774H180.658C180.963 143.774 181.224 144.405 181.485 145.668C181.311 146.016 181.203 146.299 181.203 146.495C181.203 146.669 181.29 146.756 181.485 146.756C181.485 146.952 181.398 147.214 181.203 147.562C181.377 153.613 181.834 158.402 182.552 161.885C182.378 162.147 182.291 162.691 182.291 163.518H180.941C180.136 163.518 179.505 158.642 179.047 148.911C179.222 147.518 179.33 145.995 179.33 144.318L180.136 143.774H180.114Z" fill="#010100"/>
<path d="M198.029 144.014C198.312 144.014 198.682 144.362 199.118 145.081V152.395C199.662 156.64 199.923 159.622 199.923 161.342L199.379 161.625H198.29C197.986 161.625 197.616 160.275 197.202 157.554C195.656 157.554 191.499 157.467 184.729 157.271L183.923 155.66C184.097 155.333 184.185 154.985 184.185 154.572C186.971 154.572 191.216 154.659 196.919 154.833V147.78C196.919 145.255 197.289 143.992 198.007 143.992L198.029 144.014ZM187.994 145.364C188.19 145.364 188.451 145.451 188.799 145.625L190.432 145.364H190.693C193.588 146.278 195.025 147.823 195.025 149.978C194.633 151.611 194.176 152.417 193.676 152.417H190.976C187.689 152.417 185.708 151.241 185.012 148.89H184.729C184.903 148.542 185.012 148.259 185.012 148.063V147.257C186.253 145.995 187.254 145.364 187.994 145.364ZM187.167 148.346V148.607C187.167 149.369 189.061 149.826 192.87 149.957C192.87 149.783 192.957 149.695 193.131 149.695C192.5 148.433 191.499 147.802 190.149 147.802C188.255 148.172 187.276 148.346 187.167 148.346Z" fill="#010100"/>
<path d="M208.347 145.101C208.717 145.188 209.087 145.624 209.436 146.451C209.436 146.778 208.63 147.953 206.998 149.977C209.262 153.417 210.807 155.115 211.613 155.115V156.726H210.263C207.716 154.636 206.366 153.003 206.192 151.85H205.909L202.927 155.637H202.1C201.556 155.528 201.294 154.81 201.294 153.46L207.52 145.058H208.326L208.347 145.101ZM214.312 143.208C215.074 143.208 215.618 146.016 215.923 151.61L216.467 151.349H220.538C220.973 151.719 221.343 151.893 221.626 151.893V153.243C221.626 153.787 220.625 154.048 218.644 154.048H216.489C216.119 154.113 215.944 154.288 215.944 154.592V158.663C215.944 159.599 215.683 160.143 215.139 160.296H214.595C213.985 160.296 213.615 158.489 213.506 154.875L213.789 154.331C213.594 153.983 213.506 153.7 213.506 153.504H213.789L213.506 152.96V152.154C213.506 151.98 213.594 151.893 213.789 151.893L213.506 151.349V148.911C213.506 147.735 213.419 145.929 213.245 143.491C213.332 143.491 213.702 143.403 214.334 143.229L214.312 143.208Z" fill="#010100"/>
<path d="M233.294 144.036H234.361C234.731 146.408 234.905 148.041 234.905 148.912C234.992 148.912 235.362 148.825 235.993 148.651C237.626 148.651 238.432 149.369 238.432 150.806C236.451 151.35 235.449 151.698 235.449 151.894C235.449 152.656 235.623 153.548 235.993 154.593C235.993 155.312 235.536 155.682 234.644 155.682V155.943C235.602 155.943 236.233 156.944 236.538 158.925C236.538 159.948 235.819 160.928 234.361 161.907C231.379 161.907 229.398 161.015 228.396 159.208L228.135 158.12H228.396C228.222 157.771 228.135 157.51 228.135 157.314C228.135 155.943 229.028 155.116 230.834 154.876C231.749 154.876 232.837 155.05 234.078 155.42C233.534 154.354 233.272 153.004 233.272 151.35C232.532 151.829 231.27 152.373 229.485 152.982C225.871 152.678 224.064 151.415 224.064 149.195C223.346 149.195 222.976 148.302 222.976 146.495V144.602L224.587 144.319C226.154 144.493 227.526 144.602 228.658 144.602H228.919C229.637 144.885 230.007 145.516 230.007 146.495C229.811 147.04 229.289 147.301 228.375 147.301H225.131V147.562C225.545 148.433 226.263 149.26 227.308 150H232.989L232.445 147.845C232.576 145.32 232.859 144.057 233.272 144.057L233.294 144.036ZM230.051 157.031V157.576C230.051 158.141 230.943 158.686 232.75 159.186C233.49 158.816 234.034 158.642 234.361 158.642V158.098C232.728 157.38 231.64 157.031 231.117 157.031C230.769 157.205 230.508 157.293 230.312 157.293C230.312 157.118 230.225 157.031 230.051 157.031Z" fill="#010100"/>
<path d="M152.751 177.776H153.556C153.774 177.776 154.753 179.039 156.538 181.564L157.366 182.108H157.91C159.608 182.108 161.502 180.672 163.591 177.776C164.31 178.059 164.68 178.691 164.68 179.67V183.197C164.68 183.61 164.767 183.959 164.941 184.285C164.941 184.459 164.854 184.546 164.68 184.546C165.05 188.399 165.224 191.207 165.224 192.927L164.418 193.471H163.874C163.156 193.471 162.786 189.858 162.786 182.652C161.175 183.915 159.717 184.546 158.454 184.546H157.649C156.756 184.546 155.668 183.828 154.405 182.391V182.674C154.579 187.572 154.688 190.554 154.688 191.599C154.427 192.318 154.144 192.688 153.883 192.688C152.794 192.688 152.25 191.969 152.25 190.533C152.25 189.705 152.337 189.183 152.533 188.9C152.359 187.507 152.163 184.176 151.989 178.887C152.25 178.168 152.533 177.82 152.794 177.82L152.751 177.776Z" fill="#010100"/>
<path d="M171.449 181.542C172.167 182.087 172.799 183.262 173.343 185.069L177.675 190.489L177.936 191.033V191.861C177.936 192.209 177.762 192.405 177.392 192.405H177.131C176.173 192.405 175.258 191.512 174.431 189.706L173.082 188.356C172.712 190.511 171.732 191.599 170.099 191.599H168.75C167.313 190.859 166.595 189.423 166.595 187.268V186.723C167.161 183.306 168.793 181.586 171.471 181.586L171.449 181.542ZM168.728 186.963V188.857C168.924 188.857 169.185 188.944 169.533 189.14C169.991 189.14 170.731 188.312 171.689 186.702C171.471 186.419 171.297 185.504 171.144 184.002H170.883C169.446 184.96 168.728 185.94 168.728 186.985V186.963Z" fill="#010100"/>
<path d="M183.9 181.542H185.25C186.099 181.934 186.73 182.587 187.144 183.436V184.242H186.6C185.337 184.242 184.706 184.068 184.706 183.698C183.683 183.806 182.529 184.525 181.179 185.853L181.44 186.397L181.179 186.941C181.179 188.421 182.442 189.51 184.967 190.184H185.772C185.947 190.184 186.665 190.01 187.927 189.64H188.21C188.493 189.64 188.842 190.01 189.277 190.729C189.277 191.687 188.102 192.514 185.751 193.167C181.419 192.1 179.264 190.119 179.264 187.224V185.33C179.264 183.306 180.787 182.043 183.857 181.542H183.9Z" fill="#010100"/>
<path d="M191.52 176.405H191.803C192.043 176.405 192.413 176.862 192.87 177.754V184.502C193.958 183.784 195.025 183.414 196.113 183.414H196.658C198.638 184.938 199.64 186.549 199.64 188.29C199.64 190.968 198.094 192.491 195.047 192.883C192.522 192.339 191.259 191.338 191.259 189.901L190.715 182.064L190.976 181.52C190.802 180.541 190.715 179.735 190.715 179.082C190.715 177.275 190.976 176.383 191.52 176.383V176.405ZM193.414 188.312V189.378C193.458 189.749 193.654 189.923 193.958 189.923H195.569C196.418 189.923 197.136 189.378 197.724 188.312V187.485C197.724 187.31 197.267 186.766 196.375 185.874C194.394 186.113 193.392 186.94 193.392 188.312H193.414Z" fill="#010100"/>
<path d="M205.887 182.087C210.741 183.349 213.179 185.505 213.179 188.574C212.722 191.991 211.285 193.711 208.869 193.711H208.325C205.125 193.711 203.057 192.993 202.099 191.556C201.381 189.967 201.032 188.987 201.032 188.574V188.313C201.032 184.721 202.556 182.653 205.625 182.087H205.908H205.887ZM204.798 185.069C204.189 185.722 203.579 186.615 202.904 187.768C203.383 190.119 205.103 191.295 208.042 191.295C210.023 190.816 211.024 189.815 211.024 188.313C210.327 186.136 208.259 185.069 204.798 185.069Z" fill="#010100"/>
<path d="M219.427 182.087C224.281 183.349 226.719 185.505 226.719 188.574C226.262 191.991 224.826 193.711 222.409 193.711H221.865C218.665 193.711 216.597 192.993 215.639 191.556C214.921 189.967 214.573 188.987 214.573 188.574V188.313C214.573 184.721 216.097 182.653 219.166 182.087H219.449H219.427ZM218.36 185.069C217.751 185.722 217.141 186.615 216.467 187.768C216.945 190.119 218.665 191.295 221.604 191.295C223.585 190.816 224.586 189.815 224.586 188.313C223.89 186.136 221.822 185.069 218.36 185.069Z" fill="#010100"/>
<path d="M228.656 177.776H229.2C230.006 177.776 230.441 179.67 230.55 183.458C234.577 181.477 236.754 180.476 237.037 180.476L237.842 181.825C237.842 182.653 236.319 183.719 233.249 185.069V185.613C236.841 187.637 238.648 189.422 238.648 191.012V191.295C238.648 191.839 238.278 192.1 237.581 192.1C236.885 191.904 236.253 191.36 235.687 190.467C234.599 189.575 232.988 188.486 230.833 187.224L231.094 188.574V191.817C231.094 192.078 230.833 192.361 230.289 192.622C229.2 192.252 228.678 191.904 228.678 191.534C228.308 183.741 228.134 179.235 228.134 178.016L228.678 177.733L228.656 177.776Z" fill="#010100"/>
<path d="M253.69 177.232H254.757C255.54 177.232 257.978 182.74 262.071 193.733V194.016C261.875 194.364 261.788 194.625 261.788 194.821H260.721C260.155 194.821 259.154 192.557 257.739 188.051L256.389 188.334H256.106C255.932 188.334 255.845 188.247 255.845 188.051L255.301 188.334H252.602L252.057 188.051C251.339 189.575 250.621 191.665 249.902 194.277H248.009C248.009 193.972 247.834 193.428 247.464 192.666L253.69 177.254V177.232ZM252.885 185.874H253.146C254.67 185.7 255.845 185.613 256.672 185.613C255.584 183.11 255.061 181.76 255.061 181.543C254.844 181.543 254.125 182.979 252.906 185.874H252.885Z" fill="#010100"/>
<path d="M264.27 178.581C264.988 178.886 265.358 179.517 265.358 180.475C265.358 180.845 265.184 181.019 264.814 181.019H264.009C263.639 181.019 263.465 180.845 263.465 180.475V179.386C263.465 179.125 263.726 178.864 264.27 178.581ZM264.27 184.263C265.533 184.263 266.164 187.68 266.164 194.537C265.99 194.885 265.881 195.147 265.881 195.343H265.337C264.248 195.343 263.704 194.537 263.704 192.905C263.53 191.011 263.443 188.943 263.443 186.679V185.068C263.443 184.807 263.704 184.546 264.248 184.263H264.27Z" fill="#010100"/>
<path d="M267.817 182.37H268.906C269.036 182.37 269.494 183.001 270.255 184.264C270.255 183.959 270.8 183.698 271.866 183.458C275.828 183.632 277.809 184.373 277.809 185.613V185.875C277.678 185.875 277.395 186.136 277.004 186.68C276.394 186.68 274.87 186.593 272.41 186.419C270.974 187.246 270.255 188.247 270.255 189.401V190.468C270.255 191.121 270.342 191.926 270.517 192.906C270.451 193.385 269.994 193.755 269.167 193.972C268.362 193.972 267.904 191.904 267.817 187.768H268.1C267.73 186.724 267.556 185.548 267.556 184.242L267.817 182.348V182.37Z" fill="#010100"/>
<path d="M125.214 113.365H126.281C128.262 114.388 129.263 116.282 129.263 119.046C129.002 121.158 128.001 123.052 126.281 124.728V125.011C126.891 125.011 128.414 124.924 130.874 124.728C131.636 124.728 132.637 125.098 133.856 125.816V127.166C133.486 127.166 133.312 127.34 133.312 127.71L130.069 127.449H120.6L120.338 126.099C120.338 125.272 121.775 124.292 124.67 123.117C126.303 121.441 127.108 119.634 127.108 117.697C126.847 116.434 126.499 115.803 126.02 115.803H124.931C124.714 115.803 124.083 116.521 123.038 117.958C122.776 117.958 122.515 117.675 122.232 117.131V114.976C122.798 113.887 123.8 113.365 125.214 113.365Z" fill="#010100"/>
<path d="M140.387 114.17C142.825 114.17 145.35 115.802 147.963 119.046L148.224 120.395V120.94C147.549 124.531 145.742 126.338 142.825 126.338H142.281C137.949 126.077 135.794 124.836 135.794 122.551C135.424 121.854 135.25 120.853 135.25 119.568V117.674C136.556 115.323 138.254 114.148 140.387 114.148V114.17ZM137.144 120.395C137.144 122.659 138.776 123.922 142.02 124.183C144.262 124.183 145.612 122.746 146.069 119.851C145.655 118.785 144.741 117.979 143.37 117.413C142.107 116.869 141.215 116.608 140.67 116.608C138.493 117.043 137.427 117.674 137.427 118.502C137.253 119.22 137.166 119.851 137.166 120.395H137.144Z" fill="#010100"/>
<path d="M154.494 113.365H155.56C157.541 114.388 158.543 116.282 158.543 119.046C158.281 121.158 157.28 123.052 155.56 124.728V125.011C156.17 125.011 157.694 124.924 160.154 124.728C160.915 124.728 161.917 125.098 163.136 125.816V127.166C162.766 127.166 162.592 127.34 162.592 127.71L159.348 127.449H149.879L149.618 126.099C149.618 125.272 151.054 124.292 153.95 123.117C155.582 121.441 156.388 119.634 156.388 117.697C156.126 116.434 155.778 115.803 155.299 115.803H154.211C153.993 115.803 153.362 116.521 152.317 117.958C152.056 117.958 151.795 117.675 151.512 117.131V114.976C152.077 113.887 153.079 113.365 154.494 113.365Z" fill="#010100"/>
<path d="M169.404 110.926H170.21C170.471 110.926 170.732 111.187 171.015 111.732V112.276C168.12 114.605 166.683 116.956 166.683 119.307C167.336 118.937 168.055 118.763 168.838 118.763H169.099C172.06 118.763 174.128 119.851 175.325 122.006C175.325 125.62 173.801 127.427 170.732 127.427H169.644C166.988 127.427 165.29 125.163 164.506 120.657V119.046C164.506 115.476 166.139 112.777 169.382 110.926H169.404ZM166.944 122.006C166.944 123.813 168.033 124.706 170.188 124.706H170.449C172.256 124.466 173.148 123.661 173.148 122.268V121.985C170.95 121.44 169.687 121.179 169.361 121.179L166.923 121.985L166.944 122.006Z" fill="#010100"/>
<path d="M177.524 125.533C178.351 125.881 178.808 126.251 178.873 126.621V127.688L177.524 127.971H177.262C177.262 127.666 177.088 127.209 176.718 126.621C176.979 125.903 177.262 125.533 177.524 125.533Z" fill="#010100"/>
<path d="M192.849 114.17C195.287 114.17 197.812 115.802 200.425 119.046L200.686 120.395V120.94C200.011 124.531 198.204 126.338 195.287 126.338H194.743C190.411 126.077 188.256 124.836 188.256 122.551C187.886 121.854 187.712 120.853 187.712 119.568V117.674C189.018 115.323 190.716 114.148 192.849 114.148V114.17ZM189.606 120.395C189.606 122.659 191.238 123.922 194.482 124.183C196.724 124.183 198.074 122.746 198.531 119.851C198.117 118.785 197.225 117.979 195.831 117.413C194.569 116.869 193.676 116.608 193.132 116.608C190.955 117.043 189.889 117.674 189.889 118.502C189.715 119.22 189.628 119.851 189.628 120.395H189.606Z" fill="#010100"/>
<path d="M202.339 110.926H203.427V111.47L207.215 111.209C210.284 112.298 211.808 114.366 211.808 117.435C210.785 124.836 209.892 128.537 209.109 128.537H208.848C208.499 128.537 208.129 127.993 207.759 126.904C209.022 120.722 209.653 117.196 209.653 116.347C209.109 114.736 208.303 113.909 207.215 113.909H204.516C204.167 113.909 203.971 114.17 203.971 114.714C204.32 117.762 204.516 119.568 204.516 120.134L203.971 120.395H203.166C202.448 120.395 202.078 117.609 202.078 112.015L202.339 110.948V110.926Z" fill="#010100"/>
<path d="M214.008 125.533C214.835 125.881 215.292 126.251 215.358 126.621V127.688L214.008 127.971H213.747C213.747 127.666 213.573 127.209 213.203 126.621C213.464 125.903 213.747 125.533 214.008 125.533Z" fill="#010100"/>
<path d="M224.456 112.276H224.739C225.827 112.276 226.35 112.994 226.35 114.431V115.781C226.35 117.5 226.437 119.568 226.611 122.006L226.35 123.095C226.72 125.119 226.894 126.491 226.894 127.165C226.306 127.514 225.762 127.71 225.283 127.71C224.674 127.71 224.304 125.903 224.195 122.311V119.068C224.195 117.544 224.282 115.28 224.456 112.319V112.276Z" fill="#010100"/>
<path d="M231.792 110.121H232.859C235.079 110.121 236.777 111.84 237.996 115.258V116.325C237.996 117.152 237.452 117.957 236.363 118.763C237.8 120.874 238.518 122.768 238.518 124.444C237.691 126.795 236.341 127.971 234.469 127.971H233.381C231.161 127.971 229.55 126.708 228.505 124.183C228.331 123.856 228.244 123.508 228.244 123.116V121.505C228.788 119.329 229.506 118.262 230.399 118.262C229.441 117.086 228.918 115.911 228.788 114.735V113.669C228.788 112.472 229.789 111.296 231.77 110.142L231.792 110.121ZM230.181 122.006C230.181 124.031 231.182 125.184 233.163 125.533H233.969C235.58 125.25 236.407 124.531 236.407 123.377C236.407 122.05 235.601 120.961 233.969 120.134H231.531C231.095 120.243 230.638 120.874 230.181 122.028V122.006ZM230.703 113.908V114.452C230.703 115.715 231.422 116.52 232.859 116.891C235.035 116.651 236.102 116.303 236.102 115.824V114.735C235.275 113.299 234.012 112.58 232.314 112.58C231.574 112.842 231.03 113.277 230.682 113.93L230.703 113.908Z" fill="#010100"/>
<path d="M252.232 109.576H254.126V110.643C251.056 113.059 249.511 115.671 249.511 118.479C249.337 118.741 249.25 119.285 249.25 120.112C249.25 121.962 250.969 124.313 254.387 127.143L254.648 128.493C254.3 128.667 254.039 128.754 253.843 128.754C253.081 128.754 251.731 127.862 249.772 126.055C248.161 124.531 247.334 122.92 247.334 121.179V118.741C247.334 114.017 248.967 110.948 252.21 109.533L252.232 109.576Z" fill="#010100"/>
<path d="M260.374 115.519H263.356C264.249 115.846 264.706 116.651 264.706 117.957L264.423 118.502L263.073 118.219H260.374V118.502C263.269 120.482 264.706 122.289 264.706 123.9V126.055C264.118 127.318 263.117 127.949 261.724 127.949C258.959 127.949 257.065 126.512 256.042 123.617V122.267C256.107 121.897 256.281 121.723 256.586 121.723H257.392C258.262 124.074 259.351 125.25 260.635 125.25C261.898 125.076 262.529 124.793 262.529 124.444V124.161C262.529 123.116 261.179 121.854 258.458 120.374L257.914 118.48V117.653C257.914 116.216 258.719 115.498 260.352 115.498L260.374 115.519Z" fill="#010100"/>
<path d="M270.953 114.713C271.671 115.258 272.303 116.433 272.847 118.24L277.179 123.66L277.44 124.204V125.032C277.44 125.38 277.266 125.576 276.896 125.576H276.634C275.677 125.576 274.762 124.683 273.935 122.876L272.586 121.527C272.216 123.682 271.236 124.77 269.603 124.77H268.254C266.817 124.03 266.099 122.593 266.099 120.438V119.894C266.665 116.477 268.297 114.757 270.975 114.757L270.953 114.713ZM268.254 120.134V122.028C268.45 122.028 268.711 122.115 269.059 122.311C269.516 122.311 270.256 121.483 271.214 119.872C270.996 119.589 270.822 118.675 270.67 117.173H270.409C268.972 118.131 268.254 119.111 268.254 120.155V120.134Z" fill="#010100"/>
<path d="M284.514 110.926H285.059C285.298 110.926 285.755 111.383 286.408 112.276C286.408 112.711 286.321 114.061 286.147 116.347L286.408 117.696H292.634C292.873 117.696 293.243 118.153 293.701 119.046V120.134L293.156 120.94L290.457 120.657H286.931C287.758 121.919 288.759 122.551 289.913 122.551L291.524 122.289H292.612C293.33 122.572 293.679 123.204 293.679 124.183V124.727C293.679 125.097 293.505 125.272 293.135 125.272H290.435C287.235 125.272 285.342 123.726 284.754 120.657V120.395C282.076 120.57 280.27 120.657 279.355 120.657L278.811 119.851C278.985 118.872 279.072 118.132 279.072 117.696H283.665L284.21 117.435L283.948 116.891V116.085C283.948 114.104 284.122 112.385 284.493 110.948L284.514 110.926Z" fill="#010100"/>
<path d="M296.443 109.032C300.405 110.883 302.386 114.322 302.386 119.307C302.386 122.616 300.862 125.859 297.793 129.037C297.379 129.037 297.031 129.124 296.705 129.32C295.616 128.95 295.094 128.232 295.094 127.165C298.511 125.206 300.231 122.42 300.231 118.784V116.891C300.231 115.258 298.707 113.103 295.638 110.404V109.598C295.638 109.228 295.899 109.054 296.443 109.054V109.032Z" fill="#010100"/>
</g>
<defs>
<clipPath id="clip0_3388_65033">
<rect width="1748" height="1181" fill="white"/>
</clipPath>
</defs>
</svg>
